<svg xmlns="http://www.w3.org/2000/svg" viewBox="0 0 516.38 197.06"><defs><style>.cls-1{fill:#fff;}.cls-2{fill:#f7082b;}</style></defs><title>logo_2</title><g id="Capa_2" data-name="Capa 2"><g id="Capa_1-2" data-name="Capa 1"><text/><path class="cls-1" d="M234.16,1.46,196.83,58v45.5H181.08V58.33L140.83,1.46h19l29.46,42.29L216.08,1.46Z"/><path class="cls-1" d="M265.37,1.46l33.4,54.4,34-54.4h14.58V103.54H331.58V61.69c0-6.13.12-11.93.37-17.43s.65-11,1.24-16.41L303.14,74.23h-9.62L264.2,28q.89,8.18,1.17,16.33t.29,17.36v41.85H249.91V1.46Z"/><path class="cls-2" d="M436.88,88.38v15.16H375.19l-4.82-12,31.21-35.15q6-6.7,10.94-13.42t5-13.71q0-7.29-4.23-11t-11.08-3.72a16.89,16.89,0,0,0-7.44,2A24.57,24.57,0,0,0,387,23a32.75,32.75,0,0,0-5.83,11.52L369.06,27Q373,13.42,382.7,6.71A36.73,36.73,0,0,1,404.06,0a32.47,32.47,0,0,1,15,3.43,26.66,26.66,0,0,1,10.65,9.7,27.7,27.7,0,0,1,3.94,15,37.59,37.59,0,0,1-6.06,19.9,129.83,129.83,0,0,1-14.8,19.47l-19.1,20.86Z"/><path class="cls-2" d="M456.71,75.69A76.81,76.81,0,0,0,462,82.54a28.22,28.22,0,0,0,7.44,6.13,19.39,19.39,0,0,0,9.84,2.48,18.85,18.85,0,0,0,8.75-2.26,19.8,19.8,0,0,0,7.37-6.71,19.08,19.08,0,0,0,3-10.87q0-6.56-2.41-10.5a14,14,0,0,0-6.34-5.68,20.94,20.94,0,0,0-8.61-1.75A31.53,31.53,0,0,0,472,54.76c-3.06.93-5.91,1.92-8.53,3L459,46.23,486.46,16H450.15V1.46h58.48l2.91,5.83L483,38.94a29.27,29.27,0,0,1,15.39,4.16,31.4,31.4,0,0,1,15.24,27.34,33,33,0,0,1-5,18.3,34.22,34.22,0,0,1-13.12,12A36.79,36.79,0,0,1,478.15,105a35.26,35.26,0,0,1-14.81-2.84,33,33,0,0,1-10.71-7.8,70.81,70.81,0,0,1-8.17-10.94Z"/><path class="cls-1" d="M150.13,161a6,6,0,0,1-4.91-1.94,7.79,7.79,0,0,1-1.6-5.14,8.07,8.07,0,0,1,1.6-4.91,5.72,5.72,0,0,1,4.91-2.17,6,6,0,0,1,4.9,1.94,7.79,7.79,0,0,1,1.61,5.14,8.12,8.12,0,0,1-1.61,4.86A5.64,5.64,0,0,1,150.13,161Z"/><path class="cls-1" d="M173.91,135.18a17.07,17.07,0,0,0,2.22,8.73,16.7,16.7,0,0,0,5.85,6,14.65,14.65,0,0,0,7.78,2.22,13.88,13.88,0,0,0,8.21-2.46,28,28,0,0,0,5.66-5.09l5.38,6.6a20.3,20.3,0,0,1-4.9,4.77,28,28,0,0,1-7.08,3.59,25.32,25.32,0,0,1-8.31,1.36,22.78,22.78,0,0,1-12.26-3.39,24.28,24.28,0,0,1-8.64-9.25,28.9,28.9,0,0,1,0-26.28,24.38,24.38,0,0,1,8.64-9.21,22.78,22.78,0,0,1,12.26-3.39A26.34,26.34,0,0,1,201,112.2a19.36,19.36,0,0,1,8,7.22L203.63,126a18.17,18.17,0,0,0-6.18-5.52,15.49,15.49,0,0,0-7.78-2.32,14.92,14.92,0,0,0-8,2.22,15.85,15.85,0,0,0-5.67,6A18,18,0,0,0,173.91,135.18Z"/><path class="cls-1" d="M265.64,135.18a26.26,26.26,0,0,1-3.35,13.35,24.52,24.52,0,0,1-9.06,9.11,25.1,25.1,0,0,1-12.79,3.3,25.37,25.37,0,0,1-12.84-3.3,24.34,24.34,0,0,1-9.1-9.11,28.28,28.28,0,0,1,0-26.7,24.34,24.34,0,0,1,9.1-9.11,25.37,25.37,0,0,1,12.84-3.3,25.1,25.1,0,0,1,12.79,3.3,24.52,24.52,0,0,1,9.06,9.11A26.26,26.26,0,0,1,265.64,135.18Zm-9.91,0a17.84,17.84,0,0,0-1.94-8.82,15,15,0,0,0-5.52-6,14.83,14.83,0,0,0-7.83-2.12A14.87,14.87,0,0,0,227,126.36a17.73,17.73,0,0,0-1.93,8.82,17.55,17.55,0,0,0,1.93,8.73,15.19,15.19,0,0,0,5.57,6,14.73,14.73,0,0,0,7.88,2.17,14.51,14.51,0,0,0,7.83-2.17,15.29,15.29,0,0,0,5.52-6A17.66,17.66,0,0,0,255.73,135.18Z"/><path class="cls-1" d="M301.4,109.61q6.14,0,9.82,2.78a15.34,15.34,0,0,1,5.28,7.6,20.59,20.59,0,0,1,3.87-4.77,22.77,22.77,0,0,1,5.95-4,16.75,16.75,0,0,1,7.26-1.6q6.42,0,10,2.78a14.7,14.7,0,0,1,5,7.46,34.61,34.61,0,0,1,1.47,10.42V160h-9.82V130.84a16.85,16.85,0,0,0-2.07-8.87q-2.08-3.41-7.84-3.4a12.37,12.37,0,0,0-9,3.45,11.21,11.21,0,0,0-3.54,8.35V160H308V130.65a15.34,15.34,0,0,0-2.27-8.68q-2.26-3.41-7.45-3.4a12.8,12.8,0,0,0-6.42,1.61,12.13,12.13,0,0,0-4.44,4.2,10.79,10.79,0,0,0-1.6,5.8V160H276V110.46h9.81v7.92a21.91,21.91,0,0,1,6.37-6.08A16.37,16.37,0,0,1,301.4,109.61Z"/><path class="cls-1" d="M367.08,161a6,6,0,0,1-4.9-1.94,7.74,7.74,0,0,1-1.61-5.14,8,8,0,0,1,1.61-4.91,5.7,5.7,0,0,1,4.9-2.17,6,6,0,0,1,4.91,1.94,7.79,7.79,0,0,1,1.6,5.14,8.11,8.11,0,0,1-1.6,4.86A5.66,5.66,0,0,1,367.08,161Z"/><path class="cls-1" d="M409.83,109.61q6.14,0,9.82,2.78a15.34,15.34,0,0,1,5.28,7.6,20.59,20.59,0,0,1,3.87-4.77,22.77,22.77,0,0,1,5.95-4,16.75,16.75,0,0,1,7.26-1.6q6.42,0,10,2.78a14.7,14.7,0,0,1,5,7.46,34.61,34.61,0,0,1,1.47,10.42V160h-9.82V130.84a16.85,16.85,0,0,0-2.07-8.87q-2.08-3.41-7.84-3.4a12.37,12.37,0,0,0-9,3.45,11.21,11.21,0,0,0-3.54,8.35V160h-9.81V130.65a15.34,15.34,0,0,0-2.27-8.68q-2.26-3.41-7.45-3.4a12.8,12.8,0,0,0-6.42,1.61,12,12,0,0,0-4.43,4.2,10.71,10.71,0,0,0-1.61,5.8V160h-9.81V110.46h9.81v7.92a21.91,21.91,0,0,1,6.37-6.08A16.37,16.37,0,0,1,409.83,109.61Z"/><path class="cls-1" d="M466.26,160l19.07-24.82-19.16-24.72h12.27l13.4,17.45,11.32-17.45h11.52L497.12,134.9,516.38,160h-11.9L490.9,142.35l-13.22,17.74Z"/><path class="cls-2" d="M133.73,44.35,72.89,28.05,12.05,11.74A9.56,9.56,0,0,0,.34,23.45L16.64,84.3l16.3,60.84a9.57,9.57,0,0,0,16,4.29l44.54-44.54L138,60.35A9.56,9.56,0,0,0,133.73,44.35ZM82.81,94.21,52.92,124.1a6.41,6.41,0,0,1-10.73-2.88L31.25,80.4,20.31,39.57a6.41,6.41,0,0,1,7.86-7.85L69,42.65l40.82,10.94a6.42,6.42,0,0,1,2.88,10.74Z"/><path class="cls-2" d="M93.39,60.13l-27-7.22-27-7.23a4.24,4.24,0,0,0-5.19,5.19l7.22,27,7.23,27a4.23,4.23,0,0,0,7.08,1.9L75.55,87,95.29,67.22A4.24,4.24,0,0,0,93.39,60.13ZM70.82,82.23,57.58,95.47a2.84,2.84,0,0,1-4.76-1.28L48,76.11,43.13,58a2.85,2.85,0,0,1,3.48-3.49L64.7,59.38l18.09,4.85A2.84,2.84,0,0,1,84.06,69Z"/><polygon class="cls-2" points="40.73 51.77 91.13 64.26 52.25 103.55 40.73 51.77"/></g></g></svg>